<svg width="158" height="41" viewBox="0 0 158 41" fill="none" xmlns="http://www.w3.org/2000/svg">
<rect x="0.5" y="0.5" width="157" height="40" rx="3.5" fill="white" stroke="black"/>
<path d="M12.0117 29H11.7237C11.0837 29 10.5477 28.952 10.1157 28.856C9.69969 28.76 9.33169 28.568 9.01169 28.28C8.70769 27.976 8.46769 27.64 8.29169 27.272C8.13169 26.904 8.00369 26.352 7.90769 25.616C7.76369 24.512 7.69169 23.032 7.69169 21.176C7.69169 19.304 7.69969 17.984 7.71569 17.216C7.74769 16.448 7.81169 15.704 7.90769 14.984C8.00369 14.248 8.13169 13.704 8.29169 13.352C8.46769 12.984 8.70769 12.656 9.01169 12.368C9.33169 12.064 9.69969 11.872 10.1157 11.792C10.5477 11.696 11.0837 11.648 11.7237 11.648H12.0117V29ZM12.9717 11.648H16.0197C17.1877 11.648 18.0677 11.848 18.6597 12.248C19.2677 12.648 19.5717 13.344 19.5717 14.336V16.496C19.5717 16.832 19.4597 17 19.2357 17H16.2117C15.9877 17 15.8517 16.968 15.8037 16.904C15.7557 16.84 15.7317 16.704 15.7317 16.496V14.624C15.7317 14.368 15.6917 14.192 15.6117 14.096C15.5477 13.984 15.3717 13.928 15.0837 13.928H12.9717V11.648ZM16.2117 23.648H19.2357C19.4597 23.648 19.5717 23.816 19.5717 24.152V26.312C19.5717 27.304 19.2677 28 18.6597 28.4C18.0677 28.8 17.1877 29 16.0197 29H12.9717V26.72H15.0837C15.3717 26.72 15.5477 26.672 15.6117 26.576C15.6917 26.464 15.7317 26.28 15.7317 26.024V24.152C15.7317 23.944 15.7557 23.808 15.8037 23.744C15.8517 23.68 15.9877 23.648 16.2117 23.648ZM26.6367 11.648V26.024C26.6367 26.264 26.6927 26.44 26.8047 26.552C26.9327 26.664 27.2047 26.72 27.6207 26.72H29.3967V29H26.3487C25.7087 29 25.1727 28.952 24.7407 28.856C24.3247 28.76 23.9567 28.568 23.6367 28.28C23.3327 27.976 23.0927 27.64 22.9167 27.272C22.7567 26.904 22.6287 26.352 22.5327 25.616C22.3887 24.512 22.3167 23.032 22.3167 21.176C22.3167 19.304 22.3247 17.984 22.3407 17.216C22.3727 16.448 22.4367 15.704 22.5327 14.984C22.6287 14.248 22.7567 13.704 22.9167 13.352C23.0927 12.984 23.3327 12.656 23.6367 12.368C23.9567 12.064 24.3247 11.872 24.7407 11.792C25.1727 11.696 25.7087 11.648 26.3487 11.648H26.6367ZM27.5967 11.672H30.6447C31.2847 11.672 31.8127 11.72 32.2287 11.816C32.6607 11.912 33.0287 12.112 33.3327 12.416C33.6527 12.704 33.8927 13.032 34.0527 13.4C34.2287 13.768 34.3647 14.32 34.4607 15.056C34.6047 16.16 34.6767 17.648 34.6767 19.52C34.6767 21.376 34.6607 22.688 34.6287 23.456C34.6127 24.224 34.5567 24.976 34.4607 25.712C34.3647 26.432 34.2287 26.976 34.0527 27.344C33.8927 27.696 33.6527 28.024 33.3327 28.328C33.0287 28.616 32.6607 28.808 32.2287 28.904C31.8127 28.984 31.2847 29.024 30.6447 29.024H30.3567V14.648C30.3567 14.408 30.2927 14.232 30.1647 14.12C30.0527 14.008 29.7887 13.952 29.3727 13.952H27.5967V11.672ZM45.4197 23.768H48.7797C48.9557 23.768 49.0437 23.88 49.0437 24.104V28.328C49.0437 28.776 48.8197 29 48.3717 29H42.5637V26.72H44.7957C45.0517 26.72 45.1797 26.696 45.1797 26.648C45.1957 26.584 45.2037 26.512 45.2037 26.432V24.032C45.2037 23.904 45.2197 23.832 45.2517 23.816C45.2837 23.784 45.3397 23.768 45.4197 23.768ZM41.7237 29H39.2037C38.6597 29 38.2997 28.912 38.1237 28.736C37.9637 28.56 37.8837 28.192 37.8837 27.632V13.016C37.8837 12.456 37.9637 12.088 38.1237 11.912C38.2997 11.736 38.6597 11.648 39.2037 11.648H41.7237V29ZM62.6899 20.288L62.7139 24.344C62.7139 26.248 62.4739 27.504 61.9939 28.112C61.5139 28.704 60.6419 29 59.3779 29H55.8499V26.72H57.6259C58.0259 26.72 58.2899 26.672 58.4179 26.576C58.5459 26.48 58.6099 26.296 58.6099 26.024V14.648C58.6099 14.36 58.5459 14.168 58.4179 14.072C58.2899 13.976 58.0259 13.928 57.6259 13.928H55.8499V11.648H59.6179C60.7859 11.648 61.5939 11.92 62.0419 12.464C62.5059 12.992 62.7379 14.032 62.7379 15.584L62.6899 20.288ZM55.1299 29.024H52.6099C52.0819 29.024 51.7299 28.936 51.5539 28.76C51.3779 28.568 51.2899 28.2 51.2899 27.656V13.016C51.2899 12.472 51.3779 12.112 51.5539 11.936C51.7299 11.744 52.0819 11.648 52.6099 11.648H55.1299V29.024ZM74.8409 29H72.3209C71.7769 29 71.4169 28.912 71.2409 28.736C71.0809 28.56 71.0009 28.2 71.0009 27.656V13.04C71.0009 12.48 71.0889 12.112 71.2649 11.936C71.4409 11.744 71.7929 11.648 72.3209 11.648H74.8409V29ZM80.8169 18.344V19.784C80.8169 20.36 80.7609 20.728 80.6489 20.888C80.5369 21.032 80.2169 21.104 79.6889 21.104H75.8009V18.344H80.8169ZM81.7769 11.648V13.712C81.7769 14.256 81.6889 14.616 81.5129 14.792C81.3369 14.952 80.9689 15.032 80.4089 15.032H75.8009V11.648H81.7769ZM87.8481 11.648V26.024C87.8481 26.28 87.8801 26.464 87.9441 26.576C88.0241 26.672 88.2081 26.72 88.4961 26.72H91.0881V29H87.5601C86.3921 29 85.5041 28.8 84.8961 28.4C84.3041 28 84.0081 27.304 84.0081 26.312V13.016C84.0081 12.456 84.0881 12.088 84.2481 11.912C84.4241 11.736 84.7841 11.648 85.3281 11.648H87.8481ZM91.8081 11.648H94.3281C94.8721 11.648 95.2241 11.736 95.3841 11.912C95.5601 12.088 95.6481 12.456 95.6481 13.016V26.024C95.6481 26.28 95.6801 26.464 95.7441 26.576C95.8241 26.672 96.0081 26.72 96.2961 26.72H96.7281V29H95.3601C94.1921 29 93.3041 28.8 92.6961 28.4C92.1041 28 91.8081 27.304 91.8081 26.312V11.648ZM103.25 11.672V18.56C103.25 18.816 103.306 19 103.418 19.112C103.546 19.224 103.818 19.28 104.234 19.28H106.01V21.56H102.962C102.05 21.56 101.314 21.464 100.754 21.272C100.21 21.08 99.8019 20.744 99.5299 20.264C99.2739 19.768 99.1059 19.24 99.0259 18.68C98.9619 18.12 98.9299 17.368 98.9299 16.424C98.9299 15.464 98.9619 14.736 99.0259 14.24C99.1059 13.744 99.2739 13.28 99.5299 12.848C99.8019 12.416 100.21 12.112 100.754 11.936C101.314 11.76 102.05 11.672 102.962 11.672H103.25ZM106.97 19.28H107.258C107.946 19.28 108.474 19.296 108.842 19.328C109.226 19.344 109.594 19.416 109.946 19.544C110.298 19.656 110.538 19.792 110.666 19.952C110.81 20.112 110.938 20.392 111.05 20.792C111.178 21.176 111.25 21.592 111.266 22.04C111.282 22.488 111.29 23.128 111.29 23.96C111.29 24.792 111.282 25.456 111.266 25.952C111.25 26.432 111.178 26.896 111.05 27.344C110.938 27.776 110.81 28.08 110.666 28.256C110.538 28.432 110.298 28.592 109.946 28.736C109.594 28.864 109.226 28.944 108.842 28.976C108.474 28.992 107.946 29 107.258 29H106.97V19.28ZM99.2659 23.648H102.29C102.514 23.648 102.65 23.68 102.698 23.744C102.746 23.808 102.77 23.944 102.77 24.152V26.024C102.77 26.28 102.802 26.464 102.866 26.576C102.946 26.672 103.13 26.72 103.418 26.72H106.01V29H102.482C101.314 29 100.426 28.8 99.8179 28.4C99.2259 28 98.9299 27.304 98.9299 26.312V24.152C98.9299 23.816 99.0419 23.648 99.2659 23.648ZM104.21 11.648H107.258C108.426 11.648 109.306 11.848 109.898 12.248C110.506 12.648 110.81 13.344 110.81 14.336V16.496C110.81 16.832 110.698 17 110.474 17H107.45C107.226 17 107.09 16.968 107.042 16.904C106.994 16.84 106.97 16.704 106.97 16.496V14.624C106.97 14.368 106.93 14.192 106.85 14.096C106.786 13.984 106.61 13.928 106.322 13.928H104.21V11.648ZM118.107 29H115.587C115.043 29 114.683 28.912 114.507 28.736C114.347 28.56 114.267 28.192 114.267 27.632V13.016C114.267 12.456 114.347 12.088 114.507 11.912C114.683 11.736 115.043 11.648 115.587 11.648H118.107V29ZM125.66 11.648V26.024C125.66 26.264 125.716 26.44 125.828 26.552C125.956 26.664 126.228 26.72 126.644 26.72H128.42V29H125.372C124.732 29 124.196 28.952 123.764 28.856C123.348 28.76 122.98 28.568 122.66 28.28C122.356 27.976 122.116 27.64 121.94 27.272C121.78 26.904 121.652 26.352 121.556 25.616C121.412 24.512 121.34 23.032 121.34 21.176C121.34 19.304 121.348 17.984 121.364 17.216C121.396 16.448 121.46 15.704 121.556 14.984C121.652 14.248 121.78 13.704 121.94 13.352C122.116 12.984 122.356 12.656 122.66 12.368C122.98 12.064 123.348 11.872 123.764 11.792C124.196 11.696 124.732 11.648 125.372 11.648H125.66ZM126.62 11.672H129.668C130.308 11.672 130.836 11.72 131.252 11.816C131.684 11.912 132.052 12.112 132.356 12.416C132.676 12.704 132.916 13.032 133.076 13.4C133.252 13.768 133.388 14.32 133.484 15.056C133.628 16.16 133.7 17.648 133.7 19.52C133.7 21.376 133.684 22.688 133.652 23.456C133.636 24.224 133.58 24.976 133.484 25.712C133.388 26.432 133.252 26.976 133.076 27.344C132.916 27.696 132.676 28.024 132.356 28.328C132.052 28.616 131.684 28.808 131.252 28.904C130.836 28.984 130.308 29.024 129.668 29.024H129.38V14.648C129.38 14.408 129.316 14.232 129.188 14.12C129.076 14.008 128.812 13.952 128.396 13.952H126.62V11.672ZM150.083 11.648V27.632C150.083 28.192 149.995 28.56 149.819 28.736C149.659 28.912 149.307 29 148.763 29H145.355C144.411 29 143.787 28.856 143.483 28.568C143.195 28.28 142.939 27.536 142.715 26.336C142.267 23.968 141.619 20.144 140.771 14.864C140.707 14.464 140.611 14.208 140.483 14.096C140.371 13.984 140.171 13.92 139.883 13.904H136.931V11.648H142.139C142.539 11.648 142.859 11.696 143.099 11.792C143.339 11.888 143.531 12.096 143.675 12.416C143.835 12.72 143.939 13.016 143.987 13.304C144.051 13.592 144.115 13.928 144.179 14.312C144.259 14.776 144.371 15.456 144.515 16.352C144.787 18.16 145.211 20.712 145.787 24.008C146.011 25.416 146.163 26.208 146.243 26.384C146.339 26.544 146.499 26.64 146.723 26.672V12.608C146.723 12.32 146.803 12.088 146.963 11.912C147.123 11.736 147.331 11.648 147.587 11.648H150.083ZM136.931 14.744H139.427C139.683 14.744 139.891 14.832 140.051 15.008C140.211 15.184 140.291 15.416 140.291 15.704V27.632C140.291 28.176 140.219 28.544 140.075 28.736C139.931 28.912 139.643 29 139.211 29H136.931V14.744Z" fill="black"/>
</svg>
